<svg xmlns="http://www.w3.org/2000/svg" width="50" height="50" viewBox="0 0 50 50" preserveAspectRatio="xMidYMid meet"><path fill="#91cc66" d="M25 13L25 22L19 13ZM37 25L28 25L37 19ZM25 37L25 28L31 37ZM13 25L22 25L13 31Z"/><path fill="#c8e5b2" d="M13 7L19 1L25 7L19 13ZM31 1L37 7L31 13L25 7ZM37 43L31 49L25 43L31 37ZM19 49L13 43L19 37L25 43ZM1 19L7 13L13 19L7 25ZM43 13L49 19L43 25L37 19ZM49 31L43 37L37 31L43 25ZM7 37L1 31L7 25L13 31Z"/><path fill="#5e9932" d="M13 1L13 13L1 13ZM49 13L37 13L37 1ZM37 49L37 37L49 37ZM1 37L13 37L13 49Z"/></svg>