<svg xmlns="http://www.w3.org/2000/svg" width="50" height="50" viewBox="0 0 50 50" preserveAspectRatio="xMidYMid meet"><path fill="#66cc66" d="M13 13L25 13L25 19L13 19ZM13 19L19 19L19 25L13 25ZM25 19L19 25L19 19ZM37 13L37 25L31 25L31 13ZM31 13L31 19L25 19L25 13ZM31 25L25 19L31 19ZM37 37L25 37L25 31L37 31ZM37 31L31 31L31 25L37 25ZM25 31L31 25L31 31ZM13 37L13 25L19 25L19 37ZM19 37L19 31L25 31L25 37ZM19 25L25 31L19 31Z"/><path fill="#b2e5b2" d="M15 7a4,4 0 1,0 8,0a4,4 0 1,0 -8,0M27 7a4,4 0 1,0 8,0a4,4 0 1,0 -8,0M27 43a4,4 0 1,0 8,0a4,4 0 1,0 -8,0M15 43a4,4 0 1,0 8,0a4,4 0 1,0 -8,0M3 19a4,4 0 1,0 8,0a4,4 0 1,0 -8,0M39 19a4,4 0 1,0 8,0a4,4 0 1,0 -8,0M39 31a4,4 0 1,0 8,0a4,4 0 1,0 -8,0M3 31a4,4 0 1,0 8,0a4,4 0 1,0 -8,0"/><path fill="#329933" d="M1 13L1 1L7 1ZM37 1L49 1L49 7ZM49 37L49 49L43 49ZM13 49L1 49L1 43Z"/></svg>