<svg xmlns="http://www.w3.org/2000/svg" viewBox="0 0 32.308 17.5">
  <defs>
    <style>
      .cls-1 {
        fill: #cc4141;
      }
    </style>
  </defs>
  <path id="ic_group_add_24px" class="cls-1" d="M10.769,11.731H6.731V7.692H4.038v4.038H0v2.692H4.038v4.038H6.731V14.423h4.038Zm13.462,1.346a4.038,4.038,0,1,0-1.225-7.888,6.642,6.642,0,0,1,1.212,3.85,6.773,6.773,0,0,1-1.212,3.85A4.025,4.025,0,0,0,24.231,13.077Zm-6.731,0a4.038,4.038,0,1,0-4.038-4.038A4.022,4.022,0,0,0,17.5,13.077Zm8.912,2.908a4.981,4.981,0,0,1,1.858,3.823V22.5h4.038V19.808C32.308,17.735,29.117,16.456,26.412,15.985ZM17.5,15.769c-2.692,0-8.077,1.346-8.077,4.038V22.5H25.577V19.808C25.577,17.115,20.192,15.769,17.5,15.769Z" transform="translate(0 -5)"/>
</svg>
