<?xml version="1.0" encoding="utf-8"?>
<!-- Generator: Adobe Illustrator 19.1.0, SVG Export Plug-In . SVG Version: 6.00 Build 0)  -->
<svg version="1.1" xmlns="http://www.w3.org/2000/svg" xmlns:xlink="http://www.w3.org/1999/xlink" x="0px" y="0px" width="24px"
	 height="24px" viewBox="0 0 24 24" enable-background="new 0 0 24 24" xml:space="preserve">
	<defs>
    <style>
      .cls-1 {
        fill: #ffffff;
      }
    </style>
  </defs>
<g id="Bounding_Boxes">
	<path fill="none" d="M0,0h24v24H0V0z"/>
</g>
<g id="Rounded">
	<path class="cls-1" d="M5,13h11.17l-4.88,4.88c-0.39,0.39-0.39,1.03,0,1.42l0,0c0.39,0.39,1.02,0.39,1.41,0l6.59-6.59c0.39-0.39,0.39-1.02,0-1.41
		L12.71,4.7c-0.39-0.39-1.02-0.39-1.41,0l0,0c-0.39,0.39-0.39,1.02,0,1.41L16.17,11H5c-0.55,0-1,0.45-1,1v0C4,12.55,4.45,13,5,13z"
		/>
</g>
</svg>
