<svg xmlns="http://www.w3.org/2000/svg" viewBox="0 0 22 22"><title>tW</title><g id="Layer_2" data-name="Layer 2"><g id="Layer_1-2" data-name="Layer 1"><path d="M20,0H2A2,2,0,0,0,0,2V20a2,2,0,0,0,2,2H20a2,2,0,0,0,2-2V2A2,2,0,0,0,20,0ZM7.12,14.47a4.46,4.46,0,0,1-1.78.32,2.18,2.18,0,0,1-1.69-.58,2.6,2.6,0,0,1-.53-1.77V9H2.19V8.2l1.07-.64.56-1.5H5.06V7.57H7V9h-2v3.42a.73.73,0,0,0,.23.61.91.91,0,0,0,.61.2A4.15,4.15,0,0,0,7.12,13Zm10.62.2H15.5L14.25,9.79q-.08-.25-.24-1.08c-.11-.54-.18-.9-.2-1.09,0,.23-.08.6-.18,1.1s-.19.87-.24,1.08l-1.25,4.87H9.9L7.54,5.39H9.47l1.19,5.06q.31,1.41.45,2.43c0-.24.08-.61.18-1.12s.17-.9.25-1.18l1.35-5.19h1.86l1.36,5.19c.06.24.13.59.22,1.07s.16.89.2,1.23c0-.33.11-.74.2-1.23s.18-.89.26-1.2l1.18-5.06h1.94Z"/></g></g></svg>